<?xml version="1.0" encoding="UTF-8" ?>
<!DOCTYPE svg PUBLIC "-//W3C//DTD SVG 1.1//EN" "http://www.w3.org/Graphics/SVG/1.1/DTD/svg11.dtd">
<svg width="480pt" height="480pt" viewBox="0 0 480 480" version="1.1" xmlns="http://www.w3.org/2000/svg">
<g id="#484647ff">
<path fill="#484647" opacity="1.00" d=" M 260.80 16.86 C 272.54 15.98 284.33 16.49 296.09 16.38 C 289.43 17.28 282.70 17.34 275.99 17.50 C 270.92 17.56 265.81 17.80 260.80 16.86 Z" />
<path fill="#484647" opacity="1.00" d=" M 114.72 297.85 C 116.52 300.23 118.24 302.69 119.99 305.13 C 117.30 307.43 116.05 310.77 115.74 314.23 C 114.51 308.86 113.83 303.33 114.72 297.85 Z" />
</g>
<g id="#010302ff">
<path fill="#010302" opacity="1.00" d=" M 203.88 26.86 C 224.16 20.18 245.60 16.16 267.01 17.53 C 280.58 17.96 294.25 15.99 307.75 18.13 C 310.56 18.80 313.39 19.37 316.25 19.82 C 337.60 24.70 357.49 34.52 376.03 46.00 C 393.51 56.50 409.87 69.55 421.66 86.37 C 430.10 97.93 435.66 111.25 440.32 124.70 C 445.89 140.93 450.19 157.66 452.20 174.73 C 452.56 188.24 452.89 201.75 453.13 215.27 C 452.65 225.91 451.48 236.50 449.17 246.91 C 444.33 270.93 438.30 294.79 429.66 317.74 C 425.66 326.56 420.53 334.89 414.96 342.79 C 411.26 334.52 411.27 325.31 410.20 316.48 C 409.02 318.25 407.94 320.07 406.97 321.96 C 398.86 338.79 388.76 354.56 380.25 371.19 C 379.60 372.57 379.04 374.00 378.48 375.42 C 385.62 375.83 392.79 375.51 399.93 375.93 L 400.73 376.09 C 403.46 377.14 406.33 377.69 409.25 377.87 C 415.26 379.33 422.36 380.37 426.18 385.81 C 430.04 391.32 432.46 397.65 435.02 403.83 C 434.72 405.50 435.08 407.77 437.09 408.13 L 437.15 408.90 C 437.39 411.47 437.22 414.23 438.50 416.57 C 440.06 419.46 442.44 421.78 444.62 424.22 L 444.98 424.71 C 444.63 426.29 445.56 427.80 447.17 428.14 L 447.43 428.78 C 448.67 434.14 449.05 439.65 449.01 445.14 C 447.86 449.28 444.94 452.57 442.51 456.01 C 446.75 463.89 450.57 471.98 454.54 480.00 L 447.49 480.00 C 443.42 472.87 441.16 464.67 435.59 458.44 C 427.55 446.93 418.53 436.16 409.89 425.10 C 405.31 419.08 399.96 413.72 394.57 408.44 C 386.24 400.25 377.73 391.90 367.39 386.29 C 367.80 388.88 368.36 391.44 368.86 394.02 C 360.50 390.64 353.87 383.75 345.02 381.56 C 335.06 381.08 325.07 381.47 315.11 381.56 C 317.49 394.31 320.17 407.17 319.44 420.23 C 319.35 429.61 319.34 439.00 319.54 448.38 C 324.27 447.62 329.07 447.56 333.85 447.39 C 340.39 447.20 346.28 443.94 351.77 440.69 C 359.05 436.34 364.25 429.27 368.01 421.80 C 369.26 421.55 370.50 421.30 371.76 421.06 C 369.41 425.59 366.89 430.02 364.43 434.48 C 359.02 440.70 354.38 448.27 346.55 451.70 C 341.90 453.51 337.12 455.50 332.03 455.35 C 313.70 455.34 295.38 455.34 277.05 455.37 C 277.88 458.70 278.72 462.04 279.44 465.41 C 279.74 465.19 280.03 464.97 280.34 464.76 C 281.25 469.81 282.67 474.82 282.53 480.00 L 277.36 480.00 C 273.68 473.68 272.02 466.51 270.14 459.52 C 269.42 457.44 268.66 454.35 265.86 454.55 C 252.89 454.32 239.99 452.50 227.00 452.76 C 217.93 452.92 208.83 452.37 199.79 453.24 C 206.83 457.94 214.86 460.77 222.45 464.43 C 227.13 466.68 232.00 468.53 236.98 470.03 C 244.13 472.13 250.96 475.37 258.39 476.48 C 262.50 477.09 266.52 478.23 270.29 480.00 L 246.01 480.00 C 231.85 474.74 217.58 469.47 204.41 461.96 C 199.94 459.83 195.80 457.14 191.73 454.33 C 189.45 452.64 186.53 452.67 183.83 452.63 C 181.32 452.59 178.81 452.73 176.30 452.81 C 171.62 452.68 166.92 452.59 162.26 453.18 C 146.84 453.57 131.40 453.35 115.97 453.20 C 110.45 453.23 105.05 451.97 99.85 450.17 C 96.25 448.80 92.37 449.06 88.61 449.22 C 84.90 447.55 80.95 446.50 77.29 444.76 C 73.62 443.25 73.57 438.55 70.79 436.14 C 67.24 432.96 63.71 429.40 62.47 424.64 C 61.08 419.10 59.30 413.66 57.17 408.36 C 58.31 407.40 59.45 406.44 60.59 405.49 C 64.28 413.30 65.91 422.79 73.32 428.18 C 73.55 421.30 72.92 414.33 74.37 407.55 C 75.50 402.24 76.19 396.68 74.92 391.34 C 75.69 393.48 76.17 395.70 76.69 397.91 C 77.35 396.15 78.05 394.41 78.62 392.63 C 83.64 392.49 88.69 393.15 93.69 392.61 C 96.59 391.04 98.65 387.90 102.08 387.37 C 105.57 386.77 109.07 386.23 112.51 385.39 C 115.63 385.05 118.73 384.66 121.87 384.54 C 130.91 384.46 140.05 385.38 148.99 383.52 L 148.70 382.79 C 147.37 379.73 145.44 376.96 144.26 373.84 C 143.36 369.18 143.42 364.25 144.95 359.74 C 146.36 356.67 149.46 354.83 151.07 351.89 C 149.39 344.57 146.58 337.44 143.13 330.77 C 141.96 328.60 140.60 326.55 139.17 324.57 C 133.64 317.69 126.88 311.93 120.53 305.85 L 119.99 305.13 C 118.24 302.69 116.52 300.23 114.72 297.85 C 113.83 303.33 114.51 308.86 115.74 314.23 C 116.54 321.12 117.65 327.96 118.79 334.81 C 119.47 337.87 119.70 341.02 119.71 344.16 C 118.73 342.96 117.77 341.76 116.85 340.52 C 113.61 335.55 109.39 331.35 105.76 326.68 C 102.99 323.09 100.17 319.53 97.58 315.81 C 93.85 310.36 90.25 304.81 87.23 298.94 C 85.42 295.36 83.38 291.90 81.38 288.43 C 79.71 285.38 78.39 282.17 76.98 279.00 C 73.66 270.12 69.86 261.30 68.31 251.89 C 67.35 244.60 66.16 237.35 64.83 230.13 C 64.26 216.41 63.96 202.61 65.53 188.95 C 66.06 176.29 68.84 163.82 72.69 151.78 C 77.44 138.61 83.37 125.90 89.48 113.31 C 94.71 103.00 101.06 93.29 108.13 84.16 C 111.03 80.45 114.46 77.15 118.42 74.59 C 125.73 70.39 130.46 63.12 137.31 58.32 C 157.42 43.98 180.42 34.25 203.88 26.86 M 237.95 25.18 C 233.61 25.25 229.39 26.26 225.22 27.40 C 209.63 31.17 194.69 37.13 179.26 41.49 C 176.16 42.38 173.35 44.00 170.58 45.63 C 166.98 47.77 162.89 49.02 159.51 51.56 C 155.01 55.07 149.18 56.18 144.66 59.67 C 141.46 62.13 137.66 64.29 135.69 67.93 C 130.37 70.58 126.44 75.16 122.01 78.99 C 105.59 94.20 96.41 115.06 86.93 134.90 C 82.90 144.59 78.84 154.33 76.38 164.56 C 74.74 169.93 72.94 175.27 71.79 180.78 L 71.84 181.77 C 71.20 185.81 71.24 189.91 71.28 194.00 C 71.34 202.30 70.37 210.61 71.19 218.91 C 71.71 223.93 71.68 228.98 71.89 234.02 C 73.11 251.46 79.41 267.98 86.04 283.99 C 89.40 290.19 92.48 296.60 96.68 302.31 C 101.88 309.90 105.30 318.90 112.01 325.34 C 113.35 321.27 111.50 317.12 110.97 313.08 C 109.67 306.80 110.59 300.37 109.94 294.05 C 109.38 289.21 105.20 285.97 103.61 281.53 C 101.83 276.49 99.78 271.49 98.92 266.18 C 99.60 266.18 100.97 266.18 101.65 266.17 C 102.77 269.78 104.17 273.40 106.74 276.24 C 111.92 282.08 116.39 288.53 121.98 294.01 C 129.74 302.57 137.10 311.58 145.95 319.07 C 144.13 311.15 141.71 303.39 139.55 295.56 C 138.15 289.96 132.89 286.78 129.80 282.20 C 126.21 276.99 121.03 271.72 122.13 264.82 C 123.95 266.39 125.49 268.25 126.68 270.34 C 129.57 275.28 133.78 279.22 137.38 283.61 C 141.94 289.09 147.78 293.24 153.10 297.92 C 158.04 302.40 163.18 306.65 168.25 310.97 C 164.59 300.31 162.75 289.07 158.42 278.63 C 155.65 272.13 149.16 267.28 149.00 259.76 C 151.17 260.04 152.67 261.56 153.62 263.44 C 157.77 270.69 163.67 276.68 168.66 283.32 C 174.63 291.26 181.54 298.43 188.71 305.28 C 192.81 308.49 196.70 312.18 201.61 314.14 C 201.97 315.78 202.74 317.30 203.48 318.81 C 204.95 318.48 206.42 318.18 207.90 317.90 C 208.40 318.93 208.87 319.98 209.33 321.05 C 209.05 322.36 208.76 323.67 208.48 324.99 C 204.28 322.64 199.98 320.49 195.76 318.18 C 186.79 312.69 179.03 305.46 170.43 299.46 C 171.13 307.36 175.79 314.04 178.81 321.15 C 178.43 321.53 177.67 322.29 177.29 322.67 C 171.86 320.91 167.67 316.87 162.77 314.12 C 158.58 311.83 154.92 308.64 150.41 306.95 C 150.27 312.21 150.49 317.56 152.12 322.60 C 153.73 327.39 151.22 332.71 153.81 337.28 C 155.82 340.90 156.39 345.54 159.42 348.44 C 165.28 348.68 171.17 347.87 177.01 348.64 C 179.77 351.39 178.17 355.80 178.52 359.31 C 179.50 359.76 180.49 360.22 181.48 360.68 C 181.69 363.04 181.59 365.46 182.14 367.78 C 182.95 369.85 184.43 371.68 184.63 373.96 C 184.95 376.09 185.57 378.74 187.99 379.38 C 194.68 380.23 201.04 377.28 207.69 377.11 C 213.80 378.10 219.84 376.34 225.95 376.36 C 233.97 376.27 242.01 376.56 250.01 375.76 C 269.67 375.82 289.33 375.69 309.00 375.61 C 314.44 375.51 319.97 376.11 325.34 374.99 C 333.61 374.21 341.97 374.37 350.23 375.21 C 345.95 370.90 340.65 367.85 336.00 363.98 C 331.86 360.46 327.45 357.27 323.48 353.54 C 320.32 350.65 317.32 347.49 313.52 345.40 C 313.51 352.72 318.89 358.67 318.87 365.94 C 317.08 365.68 315.30 365.41 313.57 364.91 C 311.90 361.24 308.39 359.08 305.55 356.42 C 299.61 351.11 295.03 344.55 290.03 338.40 C 288.32 339.20 286.58 339.95 284.83 340.63 C 286.13 336.17 288.69 332.18 289.71 327.64 C 292.62 322.14 295.10 316.25 295.96 310.06 C 297.11 296.43 295.54 281.89 287.87 270.22 C 285.76 267.32 283.11 263.82 279.05 264.33 C 273.17 264.60 265.54 264.30 262.20 270.20 C 256.89 279.52 257.21 290.62 257.49 301.01 C 258.71 309.04 262.02 316.81 261.45 325.06 L 260.30 324.79 C 256.14 320.44 251.41 316.56 245.67 314.50 C 237.98 311.64 231.64 306.19 224.10 303.08 C 224.67 305.95 225.79 308.66 226.77 311.41 C 226.08 311.66 224.71 312.16 224.02 312.41 C 213.98 309.23 207.21 300.70 199.84 293.71 C 199.95 292.52 199.13 291.61 198.56 290.67 C 197.80 291.25 197.04 291.83 196.28 292.42 C 195.77 291.69 195.27 290.96 194.76 290.24 C 193.15 286.23 190.33 282.81 188.89 278.71 C 192.01 277.61 194.10 279.78 196.02 281.91 C 197.01 283.85 198.21 285.70 199.79 287.23 C 205.02 292.46 210.38 297.60 216.19 302.19 C 216.42 300.76 216.76 299.33 216.70 297.88 C 213.44 292.59 206.53 288.90 207.05 281.86 C 212.07 283.80 215.79 287.77 219.70 291.30 C 225.13 296.35 231.51 300.19 237.62 304.33 C 239.55 305.77 242.00 305.82 244.30 305.88 C 247.25 308.81 250.36 311.68 254.16 313.48 C 253.46 310.53 252.43 307.68 251.12 304.96 C 245.22 292.12 239.26 279.23 231.75 267.26 C 231.34 264.79 231.05 262.31 230.90 259.83 C 232.27 260.82 233.71 261.78 234.82 263.09 C 241.00 270.82 246.81 278.98 250.62 288.17 C 252.17 283.58 251.69 278.60 253.21 274.00 C 254.14 271.66 255.57 269.55 256.31 267.13 C 259.40 262.20 264.62 258.69 270.57 258.66 C 276.63 258.70 283.53 258.38 288.39 262.63 C 295.65 268.35 298.37 277.51 302.28 285.46 C 302.03 290.37 303.87 295.06 303.76 299.96 C 303.73 304.76 304.02 309.61 303.17 314.36 C 301.55 321.41 298.13 327.89 294.27 333.96 C 299.08 340.75 304.82 346.86 310.95 352.46 C 311.14 351.87 311.53 350.69 311.73 350.10 C 308.25 344.94 306.56 338.87 304.97 332.93 C 306.49 332.79 308.30 332.13 309.54 333.41 C 313.03 336.26 315.99 339.72 319.67 342.35 C 327.36 348.09 333.86 355.39 342.08 360.41 C 342.00 360.77 341.93 361.13 341.87 361.49 C 345.79 363.89 348.54 367.67 352.22 370.38 C 351.83 364.86 348.04 360.47 346.89 355.16 C 345.81 351.41 346.17 347.44 347.22 343.73 C 350.21 346.84 351.49 351.33 355.20 353.81 C 361.51 358.49 367.16 363.92 372.89 369.27 C 375.16 366.28 377.33 363.17 378.74 359.68 C 382.34 354.13 385.35 348.12 388.00 342.06 C 389.51 340.14 390.88 338.12 392.05 335.97 C 400.02 321.53 407.17 306.65 415.25 292.27 C 415.94 292.25 417.31 292.23 417.99 292.22 C 417.31 297.16 415.47 301.98 415.92 307.04 C 416.54 314.97 416.19 322.93 416.01 330.87 C 416.47 330.90 417.38 330.95 417.83 330.97 C 417.18 322.73 425.16 317.58 426.02 309.77 C 427.79 306.67 428.50 303.11 429.60 299.74 C 432.59 290.19 435.38 280.54 436.75 270.60 C 439.79 255.95 443.94 241.53 446.35 226.75 C 447.49 214.54 447.27 202.25 447.35 190.00 C 447.33 184.75 447.59 179.43 446.52 174.25 C 443.28 159.40 439.03 144.81 434.76 130.23 C 433.49 125.64 432.37 120.97 430.25 116.67 C 424.40 104.46 417.25 92.81 408.70 82.30 C 405.81 78.56 403.47 74.20 399.29 71.69 C 394.97 67.33 390.11 63.49 385.19 59.84 C 381.34 56.56 376.82 54.20 372.78 51.18 C 364.42 45.01 354.78 41.03 345.54 36.45 C 340.91 34.28 336.52 31.48 331.50 30.31 C 323.76 28.39 315.91 26.90 308.24 24.71 C 304.93 23.73 301.48 23.24 298.03 23.27 C 283.68 23.28 269.33 23.37 254.97 23.37 C 249.23 23.28 243.67 25.01 237.95 25.18 M 151.69 357.71 C 149.82 361.84 150.44 366.61 150.53 371.03 C 150.68 377.33 155.86 384.00 162.66 383.30 C 170.31 383.46 178.34 384.16 185.45 380.68 C 183.33 379.22 181.06 377.89 178.50 377.42 C 179.14 377.14 180.43 376.57 181.07 376.29 C 179.17 375.15 177.43 373.32 175.06 373.41 C 169.08 373.11 163.10 373.42 157.12 373.59 C 157.23 372.55 157.34 371.52 157.45 370.49 C 163.47 367.64 170.61 367.95 176.25 364.27 C 171.57 363.15 166.70 363.46 161.98 364.18 C 159.25 364.44 155.95 365.48 153.91 362.98 C 159.90 359.51 166.94 358.87 173.58 357.43 C 173.64 356.22 173.71 355.02 173.78 353.82 C 166.32 353.06 157.96 353.01 151.69 357.71 M 355.44 362.99 C 355.90 366.18 355.73 369.75 357.44 372.60 C 359.44 375.81 363.79 374.31 366.65 373.27 C 363.14 369.60 359.83 365.63 355.44 362.99 M 369.65 379.89 C 371.44 382.56 374.08 384.42 377.31 384.85 C 383.30 389.05 389.32 393.29 394.52 398.47 C 396.53 400.53 398.70 402.43 401.15 403.97 C 408.21 412.52 416.04 420.43 422.66 429.34 C 429.24 436.29 433.76 445.05 441.10 451.29 C 441.64 444.92 442.25 438.41 441.19 432.07 C 439.36 427.13 436.92 422.37 434.04 417.96 C 431.04 414.07 430.23 409.10 428.11 404.77 C 425.35 398.99 423.62 392.57 419.58 387.50 C 419.24 387.43 418.54 387.29 418.19 387.21 C 415.90 384.65 412.24 384.70 409.14 383.95 C 404.14 383.19 399.25 381.75 394.22 381.29 C 392.20 379.58 389.64 378.84 387.01 379.18 C 381.23 379.65 375.40 379.03 369.65 379.89 M 294.49 381.26 C 296.81 389.35 298.48 397.65 299.61 406.00 C 300.26 419.70 299.49 433.43 300.11 447.14 C 305.00 447.61 309.94 447.61 314.83 447.04 C 315.64 437.36 314.49 427.68 314.66 418.00 C 314.83 411.29 313.75 404.64 313.62 397.95 C 313.58 392.57 311.68 387.43 311.37 382.07 C 305.81 380.97 300.11 381.49 294.49 381.26 M 268.23 382.75 C 268.49 386.15 268.92 389.56 269.91 392.84 C 272.12 400.17 271.05 407.93 272.37 415.40 C 272.99 425.96 272.68 436.55 272.61 447.12 C 280.38 447.82 288.20 447.66 295.98 447.33 C 295.41 444.25 294.49 441.20 294.58 438.04 C 294.82 423.69 294.72 409.33 294.16 394.99 C 293.50 390.54 293.63 385.50 290.98 381.69 C 283.38 381.27 275.73 381.39 268.23 382.75 M 204.47 384.48 C 196.74 385.23 189.16 386.91 181.44 387.78 C 174.30 389.67 166.89 388.98 159.62 389.62 C 152.19 391.31 144.53 390.23 137.00 391.01 C 129.84 391.68 122.62 390.82 115.48 391.55 C 111.56 391.23 107.70 392.10 103.89 392.86 C 99.41 393.33 95.99 396.87 93.77 400.52 C 92.26 406.20 92.61 412.18 92.39 418.01 C 92.58 425.96 91.85 433.97 92.80 441.88 C 96.16 444.35 100.44 444.83 104.40 445.72 C 113.14 447.66 122.14 447.24 131.01 446.87 C 140.71 446.81 150.41 446.48 160.12 446.57 C 157.37 446.21 154.61 445.90 151.87 445.51 C 168.58 445.16 185.29 445.14 202.00 445.28 C 205.13 445.34 208.25 445.07 211.34 444.56 C 216.16 445.59 221.11 445.19 226.00 445.28 C 233.18 445.20 240.35 445.52 247.53 445.52 C 247.49 438.01 247.62 430.49 247.35 422.98 C 245.39 409.80 246.71 396.31 243.80 383.26 C 237.25 382.20 230.58 382.62 224.01 383.17 C 217.50 383.63 210.88 382.91 204.47 384.48 M 248.11 383.17 C 249.12 393.11 250.30 403.03 251.33 412.97 C 251.46 424.13 251.61 435.30 251.46 446.46 C 256.65 446.91 261.87 447.08 267.08 446.93 C 267.77 434.64 267.14 422.32 267.37 410.02 C 267.68 402.90 265.45 396.04 265.20 388.97 C 264.91 386.95 265.21 383.74 262.46 383.48 C 257.71 382.85 252.89 383.24 248.11 383.17 M 81.65 399.42 C 81.47 407.33 79.32 415.07 79.50 423.01 C 79.70 428.29 79.10 433.63 79.80 438.89 C 81.03 441.52 84.27 440.93 86.63 441.05 C 86.70 432.70 86.43 424.36 86.61 416.01 C 86.70 410.12 88.04 404.36 88.57 398.52 C 86.25 398.68 83.94 398.99 81.65 399.42 Z" />
</g>
<g id="#171415a3">
<path fill="#171415" opacity="0.64" d=" M 307.75 18.13 C 310.61 18.50 313.45 19.09 316.25 19.82 C 313.39 19.37 310.56 18.80 307.75 18.13 Z" />
</g>
<g id="#393f3dff">
<path fill="#393f3d" opacity="1.00" d=" M 237.95 25.18 C 243.67 25.01 249.23 23.28 254.97 23.37 C 269.33 23.37 283.68 23.28 298.03 23.27 C 301.48 23.24 304.93 23.73 308.24 24.71 C 315.91 26.90 323.76 28.39 331.50 30.31 C 336.52 31.48 340.91 34.28 345.54 36.45 C 354.78 41.03 364.42 45.01 372.78 51.18 C 376.82 54.20 381.34 56.56 385.19 59.84 C 383.84 59.57 382.48 59.37 381.13 59.16 C 381.30 62.85 380.94 66.84 382.90 70.16 C 384.95 73.64 388.03 76.60 391.76 78.23 C 395.58 79.88 399.84 79.63 403.90 79.34 C 402.54 76.69 401.07 74.08 399.29 71.69 C 403.47 74.20 405.81 78.56 408.70 82.30 C 417.25 92.81 424.40 104.46 430.25 116.67 C 432.37 120.97 433.49 125.64 434.76 130.23 C 439.03 144.81 443.28 159.40 446.52 174.25 C 447.59 179.43 447.33 184.75 447.35 190.00 C 447.27 202.25 447.49 214.54 446.35 226.75 C 443.94 241.53 439.79 255.95 436.75 270.60 C 435.38 280.54 432.59 290.19 429.60 299.74 C 428.50 303.11 427.79 306.67 426.02 309.77 C 425.30 310.57 424.57 311.37 423.84 312.17 C 423.95 302.49 425.64 292.91 426.46 283.28 C 428.07 276.39 428.13 268.99 424.50 262.70 C 420.25 266.79 416.27 271.28 413.68 276.63 C 407.02 290.05 400.36 303.55 395.86 317.88 C 393.24 325.94 390.47 333.95 388.00 342.06 C 385.35 348.12 382.34 354.13 378.74 359.68 C 377.89 360.43 377.02 361.16 376.16 361.90 C 364.94 342.09 354.08 322.07 342.50 302.47 C 336.85 292.97 332.77 282.55 326.03 273.71 C 325.13 278.45 324.13 283.23 324.14 288.08 C 324.55 298.98 327.45 309.57 328.48 320.39 C 324.71 316.41 321.82 311.73 318.74 307.23 C 313.41 299.85 308.40 292.22 302.28 285.46 C 298.37 277.51 295.65 268.35 288.39 262.63 C 283.53 258.38 276.63 258.70 270.57 258.66 C 264.62 258.69 259.40 262.20 256.31 267.13 C 255.51 268.11 254.71 269.09 253.92 270.06 C 248.51 266.56 243.53 262.44 237.97 259.16 C 234.21 256.92 230.55 254.53 226.92 252.09 C 228.01 257.29 229.15 262.57 231.75 267.26 C 239.26 279.23 245.22 292.12 251.12 304.96 C 252.43 307.68 253.46 310.53 254.16 313.48 C 250.36 311.68 247.25 308.81 244.30 305.88 C 237.25 298.19 229.22 291.51 221.63 284.38 C 214.46 278.20 206.89 272.49 200.05 265.96 C 195.39 261.58 191.86 256.18 187.19 251.81 C 187.18 257.26 187.71 262.85 190.14 267.82 C 192.96 274.44 198.06 279.67 201.46 285.96 C 199.59 284.68 197.74 283.38 196.02 281.91 C 194.10 279.78 192.01 277.61 188.89 278.71 C 190.33 282.81 193.15 286.23 194.76 290.24 C 196.27 295.28 197.14 300.49 198.88 305.46 C 195.77 302.79 192.82 299.91 190.41 296.58 C 181.39 284.53 172.08 272.65 164.18 259.81 C 156.13 248.03 148.83 235.76 141.53 223.51 C 137.81 217.19 136.44 209.89 134.00 203.06 C 131.05 192.98 128.02 182.88 126.47 172.47 C 125.38 165.58 126.16 158.56 125.11 151.66 C 123.69 142.52 123.66 133.19 124.28 123.98 C 125.96 111.32 126.57 98.52 129.04 85.97 C 130.53 79.71 133.78 74.06 135.69 67.93 C 137.66 64.29 141.46 62.13 144.66 59.67 C 149.18 56.18 155.01 55.07 159.51 51.56 C 162.89 49.02 166.98 47.77 170.58 45.63 C 173.35 44.00 176.16 42.38 179.26 41.49 C 194.69 37.13 209.63 31.17 225.22 27.40 C 229.39 26.26 233.61 25.25 237.95 25.18 M 340.38 99.23 C 336.82 100.69 333.47 103.90 333.49 108.00 C 333.54 113.77 340.45 117.97 345.67 115.63 C 350.63 114.03 351.58 107.55 349.81 103.31 C 347.96 100.30 343.93 97.68 340.38 99.23 M 292.71 112.87 C 285.47 116.72 281.98 127.14 286.80 134.13 C 289.06 137.39 291.82 140.69 295.62 142.17 C 301.97 143.75 309.43 141.88 313.52 136.56 C 315.96 133.62 315.74 129.55 315.72 125.96 C 315.86 120.17 311.43 115.17 306.47 112.77 C 302.00 111.84 297.14 111.68 292.71 112.87 M 250.44 136.34 C 244.45 139.81 245.01 151.10 252.19 152.84 C 257.82 154.75 265.75 150.53 265.22 144.01 C 265.14 141.20 264.70 137.47 261.64 136.33 C 258.10 135.15 253.92 134.87 250.44 136.34 Z" />
</g>
<g id="#757b7bff">
<path fill="#757b7b" opacity="1.00" d=" M 381.13 59.16 C 382.48 59.37 383.84 59.57 385.19 59.84 C 390.11 63.49 394.97 67.33 399.29 71.69 C 401.07 74.08 402.54 76.69 403.90 79.34 C 399.84 79.63 395.58 79.88 391.76 78.23 C 388.03 76.60 384.95 73.64 382.90 70.16 C 380.94 66.84 381.30 62.85 381.13 59.16 Z" />
</g>
<g id="#1b2121ff">
<path fill="#1b2121" opacity="1.00" d=" M 122.01 78.99 C 126.44 75.16 130.37 70.58 135.69 67.93 C 133.78 74.06 130.53 79.71 129.04 85.97 C 126.57 98.52 125.96 111.32 124.28 123.98 C 123.66 133.19 123.69 142.52 125.11 151.66 C 126.16 158.56 125.38 165.58 126.47 172.47 C 128.02 182.88 131.05 192.98 134.00 203.06 C 136.44 209.89 137.81 217.19 141.53 223.51 C 148.83 235.76 156.13 248.03 164.18 259.81 C 172.08 272.65 181.39 284.53 190.41 296.58 C 192.82 299.91 195.77 302.79 198.88 305.46 C 200.21 308.20 201.02 311.15 201.61 314.14 C 196.70 312.18 192.81 308.49 188.71 305.28 C 181.54 298.43 174.63 291.26 168.66 283.32 C 163.67 276.68 157.77 270.69 153.62 263.44 C 152.67 261.56 151.17 260.04 149.00 259.76 C 149.16 267.28 155.65 272.13 158.42 278.63 C 162.75 289.07 164.59 300.31 168.25 310.97 C 163.18 306.65 158.04 302.40 153.10 297.92 C 147.78 293.24 141.94 289.09 137.38 283.61 C 133.78 279.22 129.57 275.28 126.68 270.34 C 125.49 268.25 123.95 266.39 122.13 264.82 C 121.03 271.72 126.21 276.99 129.80 282.20 C 132.89 286.78 138.15 289.96 139.55 295.56 C 141.71 303.39 144.13 311.15 145.95 319.07 C 137.10 311.58 129.74 302.57 121.98 294.01 C 116.39 288.53 111.92 282.08 106.74 276.24 C 104.17 273.40 102.77 269.78 101.65 266.17 C 100.97 266.18 99.60 266.18 98.92 266.18 C 99.78 271.49 101.83 276.49 103.61 281.53 C 105.20 285.97 109.38 289.21 109.94 294.05 C 110.59 300.37 109.67 306.80 110.97 313.08 C 111.50 317.12 113.35 321.27 112.01 325.34 C 105.30 318.90 101.88 309.90 96.68 302.31 C 92.48 296.60 89.40 290.19 86.04 283.99 C 79.41 267.98 73.11 251.46 71.89 234.02 C 71.68 228.98 71.71 223.93 71.19 218.91 C 70.37 210.61 71.34 202.30 71.28 194.00 C 71.24 189.91 71.20 185.81 71.84 181.77 C 72.67 194.58 71.08 207.44 72.17 220.24 C 79.73 217.72 86.00 211.01 87.07 202.99 C 87.86 197.03 87.01 190.58 83.44 185.59 C 81.31 182.42 78.19 180.14 75.14 177.93 C 74.02 178.88 72.91 179.83 71.79 180.78 C 72.94 175.27 74.74 169.93 76.38 164.56 C 78.84 154.33 82.90 144.59 86.93 134.90 C 96.41 115.06 105.59 94.20 122.01 78.99 M 112.43 176.46 C 105.61 179.69 105.58 190.34 111.96 194.04 C 116.74 196.82 122.98 192.84 123.61 187.63 C 125.34 181.40 119.10 173.44 112.43 176.46 Z" />
<path fill="#1b2121" opacity="1.00" d=" M 187.19 251.81 C 191.86 256.18 195.39 261.58 200.05 265.96 C 206.89 272.49 214.46 278.20 221.63 284.38 C 229.22 291.51 237.25 298.19 244.30 305.88 C 242.00 305.82 239.55 305.77 237.62 304.33 C 231.51 300.19 225.13 296.35 219.70 291.30 C 215.79 287.77 212.07 283.80 207.05 281.86 C 206.53 288.90 213.44 292.59 216.70 297.88 C 216.76 299.33 216.42 300.76 216.19 302.19 C 210.38 297.60 205.02 292.46 199.79 287.23 C 198.21 285.70 197.01 283.85 196.02 281.91 C 197.74 283.38 199.59 284.68 201.46 285.96 C 198.06 279.67 192.96 274.44 190.14 267.82 C 187.71 262.85 187.18 257.26 187.19 251.81 Z" />
<path fill="#1b2121" opacity="1.00" d=" M 326.03 273.71 C 332.77 282.55 336.85 292.97 342.50 302.47 C 354.08 322.07 364.94 342.09 376.16 361.90 C 377.02 361.16 377.89 360.43 378.74 359.68 C 377.33 363.17 375.16 366.28 372.89 369.27 C 367.16 363.92 361.51 358.49 355.20 353.81 C 351.49 351.33 350.21 346.84 347.22 343.73 C 346.17 347.44 345.81 351.41 346.89 355.16 C 348.04 360.47 351.83 364.86 352.22 370.38 C 348.54 367.67 345.79 363.89 341.87 361.49 C 341.93 361.13 342.00 360.77 342.08 360.41 C 333.86 355.39 327.36 348.09 319.67 342.35 C 315.99 339.72 313.03 336.26 309.54 333.41 C 308.30 332.13 306.49 332.79 304.97 332.93 C 306.56 338.87 308.25 344.94 311.73 350.10 C 311.53 350.69 311.14 351.87 310.95 352.46 C 304.82 346.86 299.08 340.75 294.27 333.96 C 298.13 327.89 301.55 321.41 303.17 314.36 C 304.02 309.61 303.73 304.76 303.76 299.96 C 303.87 295.06 302.03 290.37 302.28 285.46 C 308.40 292.22 313.41 299.85 318.74 307.23 C 321.82 311.73 324.71 316.41 328.48 320.39 C 327.45 309.57 324.55 298.98 324.14 288.08 C 324.13 283.23 325.13 278.45 326.03 273.71 Z" />
</g>
<g id="#828282ff">
<path fill="#828282" opacity="1.00" d=" M 78.63 80.70 C 85.40 76.34 93.35 74.24 101.23 73.05 C 107.01 72.11 112.73 73.83 118.42 74.59 C 114.46 77.15 111.03 80.45 108.13 84.16 C 101.06 93.29 94.71 103.00 89.48 113.31 C 83.37 125.90 77.44 138.61 72.69 151.78 C 72.76 151.05 72.90 149.57 72.97 148.84 C 68.26 154.43 65.18 161.12 61.15 167.18 C 55.37 175.93 50.74 185.35 45.43 194.38 C 41.73 201.36 37.39 208.01 34.21 215.24 C 32.93 217.82 33.29 220.72 33.71 223.45 C 39.65 220.24 43.41 214.51 47.04 209.04 C 53.66 199.82 58.36 189.41 64.99 180.19 C 63.69 187.30 63.47 194.54 63.59 201.75 C 63.40 206.71 63.76 211.80 62.53 216.65 C 60.75 221.15 57.26 224.69 54.91 228.87 C 48.55 239.71 42.19 250.59 36.81 261.95 C 34.90 265.77 34.17 270.02 33.81 274.24 C 35.66 274.20 37.91 274.93 39.39 273.44 C 43.37 269.86 45.81 265.00 48.55 260.50 C 53.76 251.81 58.00 242.44 64.69 234.74 C 65.78 242.67 66.86 250.62 68.72 258.42 C 69.23 261.05 70.26 264.06 68.48 266.46 C 60.27 279.36 51.49 291.95 44.57 305.63 C 43.09 308.59 42.38 311.85 41.73 315.08 C 43.33 315.26 44.97 315.94 46.59 315.56 C 49.77 313.89 51.91 310.83 53.99 307.99 C 60.90 297.46 67.48 286.71 74.56 276.29 C 75.38 277.19 76.20 278.08 76.98 279.00 C 78.39 282.17 79.71 285.38 81.38 288.43 C 73.06 299.12 66.84 311.20 59.61 322.61 C 56.01 328.24 53.30 334.36 50.26 340.30 C 48.81 343.35 47.21 346.51 47.09 349.96 C 46.92 352.22 49.36 353.21 50.71 354.59 C 53.76 351.25 56.54 347.66 58.70 343.68 C 64.67 332.87 71.44 322.53 78.13 312.16 C 81.04 307.67 83.04 302.46 87.23 298.94 C 90.25 304.81 93.85 310.36 97.58 315.81 C 95.66 319.95 93.27 323.85 90.44 327.43 C 85.05 334.28 80.71 341.86 76.39 349.40 C 72.80 355.66 70.61 362.58 67.24 368.96 C 63.63 368.34 59.11 366.38 56.29 369.80 C 55.59 375.71 51.89 380.91 52.10 386.96 C 51.69 394.45 54.84 401.42 57.17 408.36 C 59.30 413.66 61.08 419.10 62.47 424.64 C 63.71 429.40 67.24 432.96 70.79 436.14 C 73.57 438.55 73.62 443.25 77.29 444.76 C 80.95 446.50 84.90 447.55 88.61 449.22 C 92.50 451.68 97.61 449.94 101.34 452.61 C 101.97 454.72 100.28 456.58 99.43 458.38 C 94.95 465.47 91.41 473.12 86.61 480.00 L 83.07 480.00 C 81.14 475.18 78.44 470.73 75.92 466.20 C 58.33 435.12 48.36 400.52 39.53 366.13 C 32.03 333.51 26.35 300.40 23.83 267.00 C 23.36 255.01 23.57 243.00 23.65 231.00 C 23.65 221.29 25.21 211.68 25.81 202.01 C 28.42 178.64 34.97 155.89 42.92 133.82 C 47.20 121.16 53.31 109.06 61.36 98.37 C 66.34 91.80 71.71 85.30 78.63 80.70 Z" />
<path fill="#828282" opacity="1.00" d=" M 115.74 314.23 C 116.05 310.77 117.30 307.43 119.99 305.13 L 120.53 305.85 C 122.94 309.56 126.25 312.53 128.96 315.99 C 130.20 317.09 129.35 318.67 128.90 319.94 C 126.43 325.44 122.69 330.25 118.79 334.81 C 117.65 327.96 116.54 321.12 115.74 314.23 Z" />
<path fill="#828282" opacity="1.00" d=" M 122.86 349.82 C 128.46 341.51 133.25 332.66 139.17 324.57 C 140.60 326.55 141.96 328.60 143.13 330.77 C 144.16 334.32 145.54 338.33 143.80 341.91 C 141.84 346.16 139.29 350.11 137.25 354.32 C 132.20 364.43 125.80 373.90 121.87 384.54 C 118.73 384.66 115.63 385.05 112.51 385.39 C 108.69 385.19 104.86 385.16 101.05 385.58 C 107.98 373.46 115.69 361.81 122.86 349.82 Z" />
<path fill="#828282" opacity="1.00" d=" M 77.57 367.58 C 86.85 353.88 94.69 339.08 105.76 326.68 C 109.39 331.35 113.61 335.55 116.85 340.52 C 106.55 356.65 96.77 373.14 88.20 390.26 C 85.01 390.69 81.83 391.07 78.63 391.39 C 76.52 386.82 73.74 382.62 71.41 378.18 C 73.18 374.49 75.23 370.94 77.57 367.58 Z" />
<path fill="#828282" opacity="1.00" d=" M 176.30 452.81 C 178.81 452.73 181.32 452.59 183.83 452.63 C 187.06 453.52 190.05 455.09 192.92 456.80 C 187.75 464.32 183.13 472.19 178.41 480.00 L 148.38 480.00 C 152.29 473.34 155.90 466.51 159.74 459.82 C 160.88 457.98 161.95 456.00 163.70 454.67 C 167.76 453.38 172.10 453.37 176.30 452.81 Z" />
<path fill="#828282" opacity="1.00" d=" M 112.18 455.21 C 124.72 454.95 137.28 455.74 149.81 454.94 C 145.70 463.51 140.47 471.48 136.25 480.00 L 98.25 480.00 C 102.56 471.55 107.31 463.35 112.18 455.21 Z" />
<path fill="#828282" opacity="1.00" d=" M 198.89 464.82 C 200.03 462.84 202.42 462.53 204.41 461.96 C 217.58 469.47 231.85 474.74 246.01 480.00 L 189.49 480.00 C 193.00 475.17 195.44 469.68 198.89 464.82 Z" />
</g>
<g id="#757b7cff">
<path fill="#757b7c" opacity="1.00" d=" M 340.38 99.23 C 343.93 97.68 347.96 100.30 349.81 103.31 C 351.58 107.55 350.63 114.03 345.67 115.63 C 340.45 117.97 333.54 113.77 333.49 108.00 C 333.47 103.90 336.82 100.69 340.38 99.23 Z" />
</g>
<g id="#767b7cff">
<path fill="#767b7c" opacity="1.00" d=" M 292.71 112.87 C 297.14 111.68 302.00 111.84 306.47 112.77 C 311.43 115.17 315.86 120.17 315.72 125.96 C 315.74 129.55 315.96 133.62 313.52 136.56 C 309.43 141.88 301.97 143.75 295.62 142.17 C 291.82 140.69 289.06 137.39 286.80 134.13 C 281.98 127.14 285.47 116.72 292.71 112.87 Z" />
</g>
<g id="#757b7aff">
<path fill="#757b7a" opacity="1.00" d=" M 250.44 136.34 C 253.92 134.87 258.10 135.15 261.64 136.33 C 264.70 137.47 265.14 141.20 265.22 144.01 C 265.75 150.53 257.82 154.75 252.19 152.84 C 245.01 151.10 244.45 139.81 250.44 136.34 Z" />
</g>
<g id="#636364ff">
<path fill="#636364" opacity="1.00" d=" M 61.15 167.18 C 65.18 161.12 68.26 154.43 72.97 148.84 C 72.90 149.57 72.76 151.05 72.69 151.78 C 68.84 163.82 66.06 176.29 65.53 188.95 C 63.96 202.61 64.26 216.41 64.83 230.13 C 62.44 220.83 64.37 211.20 63.59 201.75 C 63.47 194.54 63.69 187.30 64.99 180.19 C 58.36 189.41 53.66 199.82 47.04 209.04 C 43.41 214.51 39.65 220.24 33.71 223.45 C 33.29 220.72 32.93 217.82 34.21 215.24 C 37.39 208.01 41.73 201.36 45.43 194.38 C 50.74 185.35 55.37 175.93 61.15 167.18 Z" />
<path fill="#636364" opacity="1.00" d=" M 120.53 305.85 C 126.88 311.93 133.64 317.69 139.17 324.57 C 133.25 332.66 128.46 341.51 122.86 349.82 C 115.69 361.81 107.98 373.46 101.05 385.58 C 104.86 385.16 108.69 385.19 112.51 385.39 C 109.07 386.23 105.57 386.77 102.08 387.37 C 98.65 387.90 96.59 391.04 93.69 392.61 C 88.69 393.15 83.64 392.49 78.62 392.63 C 78.63 392.32 78.63 391.70 78.63 391.39 C 81.83 391.07 85.01 390.69 88.20 390.26 C 96.77 373.14 106.55 356.65 116.85 340.52 C 117.77 341.76 118.73 342.96 119.71 344.16 C 119.70 341.02 119.47 337.87 118.79 334.81 C 122.69 330.25 126.43 325.44 128.90 319.94 C 129.35 318.67 130.20 317.09 128.96 315.99 C 126.25 312.53 122.94 309.56 120.53 305.85 Z" />
</g>
<g id="#110e0e6f">
<path fill="#110e0e" opacity="0.44" d=" M 452.20 174.73 C 453.14 188.20 455.28 201.80 453.13 215.27 C 452.89 201.75 452.56 188.24 452.20 174.73 Z" />
</g>
<g id="#383e3eff">
<path fill="#383e3e" opacity="1.00" d=" M 112.43 176.46 C 119.10 173.44 125.34 181.40 123.61 187.63 C 122.98 192.84 116.74 196.82 111.96 194.04 C 105.58 190.34 105.61 179.69 112.43 176.46 Z" />
</g>
<g id="#393e3dff">
<path fill="#393e3d" opacity="1.00" d=" M 71.79 180.78 C 72.91 179.83 74.02 178.88 75.14 177.93 C 78.19 180.14 81.31 182.42 83.44 185.59 C 87.01 190.58 87.86 197.03 87.07 202.99 C 86.00 211.01 79.73 217.72 72.17 220.24 C 71.08 207.44 72.67 194.58 71.84 181.77 L 71.79 180.78 Z" />
<path fill="#393e3d" opacity="1.00" d=" M 378.48 375.42 C 379.04 374.00 379.60 372.57 380.25 371.19 C 380.29 371.77 380.37 372.93 380.41 373.51 C 386.97 373.71 393.53 374.41 399.93 375.93 C 392.79 375.51 385.62 375.83 378.48 375.42 Z" />
</g>
<g id="#646465ff">
<path fill="#646465" opacity="1.00" d=" M 62.53 216.65 C 63.76 211.80 63.40 206.71 63.59 201.75 C 64.37 211.20 62.44 220.83 64.83 230.13 C 66.16 237.35 67.35 244.60 68.31 251.89 C 69.86 261.30 73.66 270.12 76.98 279.00 C 76.20 278.08 75.38 277.19 74.56 276.29 C 67.48 286.71 60.90 297.46 53.99 307.99 C 51.91 310.83 49.77 313.89 46.59 315.56 C 44.97 315.94 43.33 315.26 41.73 315.08 C 42.38 311.85 43.09 308.59 44.57 305.63 C 51.49 291.95 60.27 279.36 68.48 266.46 C 70.26 264.06 69.23 261.05 68.72 258.42 C 66.86 250.62 65.78 242.67 64.69 234.74 C 58.00 242.44 53.76 251.81 48.55 260.50 C 45.81 265.00 43.37 269.86 39.39 273.44 C 37.91 274.93 35.66 274.20 33.81 274.24 C 34.17 270.02 34.90 265.77 36.81 261.95 C 42.19 250.59 48.55 239.71 54.91 228.87 C 57.26 224.69 60.75 221.15 62.53 216.65 Z" />
<path fill="#646465" opacity="1.00" d=" M 97.58 315.81 C 100.17 319.53 102.99 323.09 105.76 326.68 C 94.69 339.08 86.85 353.88 77.57 367.58 C 75.23 370.94 73.18 374.49 71.41 378.18 C 69.89 375.54 68.72 372.56 66.38 370.51 C 63.34 368.69 59.62 369.55 56.29 369.80 C 59.11 366.38 63.63 368.34 67.24 368.96 C 70.61 362.58 72.80 355.66 76.39 349.40 C 80.71 341.86 85.05 334.28 90.44 327.43 C 93.27 323.85 95.66 319.95 97.58 315.81 Z" />
<path fill="#646465" opacity="1.00" d=" M 183.83 452.63 C 186.53 452.67 189.45 452.64 191.73 454.33 C 195.80 457.14 199.94 459.83 204.41 461.96 C 202.42 462.53 200.03 462.84 198.89 464.82 C 195.44 469.68 193.00 475.17 189.49 480.00 L 178.41 480.00 C 183.13 472.19 187.75 464.32 192.92 456.80 C 190.05 455.09 187.06 453.52 183.83 452.63 Z" />
</g>
<g id="#1b2020ff">
<path fill="#1b2020" opacity="1.00" d=" M 226.92 252.09 C 230.55 254.53 234.21 256.92 237.97 259.16 C 243.53 262.44 248.51 266.56 253.92 270.06 C 254.71 269.09 255.51 268.11 256.31 267.13 C 255.57 269.55 254.14 271.66 253.21 274.00 C 251.69 278.60 252.17 283.58 250.62 288.17 C 246.81 278.98 241.00 270.82 234.82 263.09 C 233.71 261.78 232.27 260.82 230.90 259.83 C 231.05 262.31 231.34 264.79 231.75 267.26 C 229.15 262.57 228.01 257.29 226.92 252.09 Z" />
<path fill="#1b2020" opacity="1.00" d=" M 413.68 276.63 C 416.27 271.28 420.25 266.79 424.50 262.70 C 428.13 268.99 428.07 276.39 426.46 283.28 C 425.64 292.91 423.95 302.49 423.84 312.17 C 424.57 311.37 425.30 310.57 426.02 309.77 C 425.16 317.58 417.18 322.73 417.83 330.97 C 417.38 330.95 416.47 330.90 416.01 330.87 C 416.19 322.93 416.54 314.97 415.92 307.04 C 415.47 301.98 417.31 297.16 417.99 292.22 C 417.31 292.23 415.94 292.25 415.25 292.27 C 407.17 306.65 400.02 321.53 392.05 335.97 C 390.88 338.12 389.51 340.14 388.00 342.06 C 390.47 333.95 393.24 325.94 395.86 317.88 C 400.36 303.55 407.02 290.05 413.68 276.63 Z" />
</g>
<g id="#fae5d1ff">
<path fill="#fae5d1" opacity="1.00" d=" M 262.20 270.20 C 265.54 264.30 273.17 264.60 279.05 264.33 C 283.11 263.82 285.76 267.32 287.87 270.22 C 295.54 281.89 297.11 296.43 295.96 310.06 C 295.10 316.25 292.62 322.14 289.71 327.64 C 287.29 331.60 283.77 335.65 284.14 340.58 C 293.13 348.72 302.36 356.66 311.73 364.38 C 315.48 367.39 319.39 370.19 323.13 373.21 C 313.85 375.02 304.38 373.93 295.00 374.39 C 284.32 374.14 273.69 375.59 263.00 375.29 C 248.35 375.03 233.70 375.24 219.06 375.16 C 213.78 367.72 208.15 360.52 203.11 352.92 C 197.36 342.67 191.37 332.55 186.01 322.08 C 195.95 324.93 205.74 328.23 215.64 331.16 C 212.79 328.31 210.62 324.87 209.33 321.05 C 208.87 319.98 208.40 318.93 207.90 317.90 C 206.76 315.40 205.60 312.91 204.60 310.36 C 204.30 308.57 204.06 306.78 203.81 305.00 C 212.02 307.42 219.13 312.41 227.29 314.96 C 232.66 316.72 237.78 319.13 243.01 321.25 C 248.50 323.58 254.63 323.11 260.30 324.79 L 261.45 325.06 C 262.02 316.81 258.71 309.04 257.49 301.01 C 257.21 290.62 256.89 279.52 262.20 270.20 M 269.04 289.00 C 267.59 296.42 268.14 304.12 269.11 311.58 C 270.23 311.57 271.35 311.59 272.48 311.61 C 276.24 314.49 281.80 315.79 285.92 312.90 C 291.90 307.54 290.36 298.65 289.26 291.60 C 288.50 286.18 284.82 280.99 279.02 280.46 C 273.41 278.95 270.58 284.68 269.04 289.00 Z" />
</g>
<g id="#180a00ff">
<path fill="#180a00" opacity="1.00" d=" M 269.04 289.00 C 270.58 284.68 273.41 278.95 279.02 280.46 C 277.50 285.20 274.27 289.20 273.02 294.02 C 271.96 299.82 272.23 305.76 272.48 311.61 C 271.35 311.59 270.23 311.57 269.11 311.58 C 268.14 304.12 267.59 296.42 269.04 289.00 Z" />
</g>
<g id="#c98e66ff">
<path fill="#c98e66" opacity="1.00" d=" M 279.02 280.46 C 284.82 280.99 288.50 286.18 289.26 291.60 C 290.36 298.65 291.90 307.54 285.92 312.90 C 281.80 315.79 276.24 314.49 272.48 311.61 C 272.23 305.76 271.96 299.82 273.02 294.02 C 274.27 289.20 277.50 285.20 279.02 280.46 Z" />
</g>
<g id="#646364ff">
<path fill="#646364" opacity="1.00" d=" M 59.61 322.61 C 66.84 311.20 73.06 299.12 81.38 288.43 C 83.38 291.90 85.42 295.36 87.23 298.94 C 83.04 302.46 81.04 307.67 78.13 312.16 C 71.44 322.53 64.67 332.87 58.70 343.68 C 56.54 347.66 53.76 351.25 50.71 354.59 C 49.36 353.21 46.92 352.22 47.09 349.96 C 47.21 346.51 48.81 343.35 50.26 340.30 C 53.30 334.36 56.01 328.24 59.61 322.61 Z" />
<path fill="#646364" opacity="1.00" d=" M 437.15 408.90 C 438.61 414.46 441.65 419.36 444.62 424.22 C 442.44 421.78 440.06 419.46 438.50 416.57 C 437.22 414.23 437.39 411.47 437.15 408.90 Z" />
</g>
<g id="#160c03ff">
<path fill="#160c03" opacity="1.00" d=" M 194.76 290.24 C 195.27 290.96 195.77 291.69 196.28 292.42 C 197.04 291.83 197.80 291.25 198.56 290.67 C 199.13 291.61 199.95 292.52 199.84 293.71 C 200.02 299.56 202.41 305.03 204.60 310.36 C 205.60 312.91 206.76 315.40 207.90 317.90 C 206.42 318.18 204.95 318.48 203.48 318.81 C 202.74 317.30 201.97 315.78 201.61 314.14 C 201.02 311.15 200.21 308.20 198.88 305.46 C 197.14 300.49 196.27 295.28 194.76 290.24 Z" />
</g>
<g id="#c58d68ff">
<path fill="#c58d68" opacity="1.00" d=" M 204.60 310.36 C 202.41 305.03 200.02 299.56 199.84 293.71 C 207.21 300.70 213.98 309.23 224.02 312.41 C 224.71 312.16 226.08 311.66 226.77 311.41 C 225.79 308.66 224.67 305.95 224.10 303.08 C 231.64 306.19 237.98 311.64 245.67 314.50 C 251.41 316.56 256.14 320.44 260.30 324.79 C 254.63 323.11 248.50 323.58 243.01 321.25 C 237.78 319.13 232.66 316.72 227.29 314.96 C 219.13 312.41 212.02 307.42 203.81 305.00 C 204.06 306.78 204.30 308.57 204.60 310.36 Z" />
</g>
<g id="#c98e65ff">
<path fill="#c98e65" opacity="1.00" d=" M 170.43 299.46 C 179.03 305.46 186.79 312.69 195.76 318.18 C 199.98 320.49 204.28 322.64 208.48 324.99 C 208.76 323.67 209.05 322.36 209.33 321.05 C 210.62 324.87 212.79 328.31 215.64 331.16 C 205.74 328.23 195.95 324.93 186.01 322.08 C 191.37 332.55 197.36 342.67 203.11 352.92 C 208.15 360.52 213.78 367.72 219.06 375.16 C 215.19 375.24 211.43 376.21 207.69 377.11 C 201.04 377.28 194.68 380.23 187.99 379.38 C 185.57 378.74 184.95 376.09 184.63 373.96 C 184.43 371.68 182.95 369.85 182.14 367.78 C 181.59 365.46 181.69 363.04 181.48 360.68 C 180.49 360.22 179.50 359.76 178.52 359.31 C 178.17 355.80 179.77 351.39 177.01 348.64 C 171.17 347.87 165.28 348.68 159.42 348.44 C 156.39 345.54 155.82 340.90 153.81 337.28 C 151.22 332.71 153.73 327.39 152.12 322.60 C 150.49 317.56 150.27 312.21 150.41 306.95 C 154.92 308.64 158.58 311.83 162.77 314.12 C 167.67 316.87 171.86 320.91 177.29 322.67 C 177.67 322.29 178.43 321.53 178.81 321.15 C 175.79 314.04 171.13 307.36 170.43 299.46 Z" />
</g>
<g id="#b7916fff">
<path fill="#b7916f" opacity="1.00" d=" M 284.14 340.58 C 283.77 335.65 287.29 331.60 289.71 327.64 C 288.69 332.18 286.13 336.17 284.83 340.63 C 286.58 339.95 288.32 339.20 290.03 338.40 C 295.03 344.55 299.61 351.11 305.55 356.42 C 308.39 359.08 311.90 361.24 313.57 364.91 C 313.11 364.78 312.19 364.51 311.73 364.38 C 302.36 356.66 293.13 348.72 284.14 340.58 Z" />
</g>
<g id="#646365ff">
<path fill="#646365" opacity="1.00" d=" M 143.13 330.77 C 146.58 337.44 149.39 344.57 151.07 351.89 C 149.46 354.83 146.36 356.67 144.95 359.74 C 143.42 364.25 143.36 369.18 144.26 373.84 C 143.24 370.94 142.82 367.89 142.35 364.87 C 138.65 370.81 135.26 376.93 131.85 383.04 C 137.47 383.38 143.09 383.18 148.70 382.79 L 148.99 383.52 C 140.05 385.38 130.91 384.46 121.87 384.54 C 125.80 373.90 132.20 364.43 137.25 354.32 C 139.29 350.11 141.84 346.16 143.80 341.91 C 145.54 338.33 144.16 334.32 143.13 330.77 Z" />
</g>
<g id="#c88d66ff">
<path fill="#c88d66" opacity="1.00" d=" M 313.52 345.40 C 317.32 347.49 320.32 350.65 323.48 353.54 C 327.45 357.27 331.86 360.46 336.00 363.98 C 340.65 367.85 345.95 370.90 350.23 375.21 C 341.97 374.37 333.61 374.21 325.34 374.99 C 324.60 374.39 323.87 373.80 323.13 373.21 C 319.39 370.19 315.48 367.39 311.73 364.38 C 312.19 364.51 313.11 364.78 313.57 364.91 C 315.30 365.41 317.08 365.68 318.87 365.94 C 318.89 358.67 313.51 352.72 313.52 345.40 Z" />
</g>
<g id="#c38d68ff">
<path fill="#c38d68" opacity="1.00" d=" M 151.69 357.71 C 157.96 353.01 166.32 353.06 173.78 353.82 C 173.71 355.02 173.64 356.22 173.58 357.43 C 166.94 358.87 159.90 359.51 153.91 362.98 C 155.95 365.48 159.25 364.44 161.98 364.18 C 166.70 363.46 171.57 363.15 176.25 364.27 C 170.61 367.95 163.47 367.64 157.45 370.49 C 157.34 371.52 157.23 372.55 157.12 373.59 C 163.10 373.42 169.08 373.11 175.06 373.41 C 177.43 373.32 179.17 375.15 181.07 376.29 C 180.43 376.57 179.14 377.14 178.50 377.42 C 173.24 377.94 168.02 378.78 162.72 378.79 C 162.70 380.29 162.68 381.79 162.66 383.30 C 155.86 384.00 150.68 377.33 150.53 371.03 C 150.44 366.61 149.82 361.84 151.69 357.71 Z" />
</g>
<g id="#bd8a70ff">
<path fill="#bd8a70" opacity="1.00" d=" M 355.44 362.99 C 359.83 365.63 363.14 369.60 366.65 373.27 C 363.79 374.31 359.44 375.81 357.44 372.60 C 355.73 369.75 355.90 366.18 355.44 362.99 Z" />
</g>
<g id="#818181ff">
<path fill="#818181" opacity="1.00" d=" M 131.85 383.04 C 135.26 376.93 138.65 370.81 142.35 364.87 C 142.82 367.89 143.24 370.94 144.26 373.84 C 145.44 376.96 147.37 379.73 148.70 382.79 C 143.09 383.18 137.47 383.38 131.85 383.04 Z" />
</g>
<g id="#0f0600ff">
<path fill="#0f0600" opacity="1.00" d=" M 56.29 369.80 C 59.62 369.55 63.34 368.69 66.38 370.51 C 68.72 372.56 69.89 375.54 71.41 378.18 C 73.74 382.62 76.52 386.82 78.63 391.39 C 78.63 391.70 78.63 392.32 78.62 392.63 C 78.05 394.41 77.35 396.15 76.69 397.91 C 76.17 395.70 75.69 393.48 74.92 391.34 C 71.07 385.11 67.19 378.83 62.55 373.15 C 62.12 375.26 61.22 377.50 62.06 379.64 C 64.24 386.20 67.80 392.27 69.31 399.05 C 68.72 399.68 67.54 400.93 66.95 401.56 C 63.87 396.97 63.19 391.33 60.49 386.55 C 59.38 384.49 58.03 382.57 56.70 380.64 C 53.74 389.17 57.72 397.57 60.59 405.49 C 59.45 406.44 58.31 407.40 57.17 408.36 C 54.84 401.42 51.69 394.45 52.10 386.96 C 51.89 380.91 55.59 375.71 56.29 369.80 Z" />
</g>
<g id="#84766aff">
<path fill="#84766a" opacity="1.00" d=" M 295.00 374.39 C 304.38 373.93 313.85 375.02 323.13 373.21 C 323.87 373.80 324.60 374.39 325.34 374.99 C 319.97 376.11 314.44 375.51 309.00 375.61 C 289.33 375.69 269.67 375.82 250.01 375.76 C 242.01 376.56 233.97 376.27 225.95 376.36 C 219.84 376.34 213.80 378.10 207.69 377.11 C 211.43 376.21 215.19 375.24 219.06 375.16 C 233.70 375.24 248.35 375.03 263.00 375.29 C 273.69 375.59 284.32 374.14 295.00 374.39 Z" />
</g>
<g id="#c48d68ff">
<path fill="#c48d68" opacity="1.00" d=" M 62.06 379.64 C 61.22 377.50 62.12 375.26 62.55 373.15 C 67.19 378.83 71.07 385.11 74.92 391.34 C 76.19 396.68 75.50 402.24 74.37 407.55 C 72.92 414.33 73.55 421.30 73.32 428.18 C 65.91 422.79 64.28 413.30 60.59 405.49 C 57.72 397.57 53.74 389.17 56.70 380.64 C 58.03 382.57 59.38 384.49 60.49 386.55 C 63.19 391.33 63.87 396.97 66.95 401.56 C 67.54 400.93 68.72 399.68 69.31 399.05 C 67.80 392.27 64.24 386.20 62.06 379.64 Z" />
</g>
<g id="#232123a6">
<path fill="#232123" opacity="0.65" d=" M 400.73 376.09 C 403.59 376.54 406.43 377.15 409.25 377.87 C 406.33 377.69 403.46 377.14 400.73 376.09 Z" />
</g>
<g id="#2b190dff">
<path fill="#2b190d" opacity="1.00" d=" M 162.72 378.79 C 168.02 378.78 173.24 377.94 178.50 377.42 C 181.06 377.89 183.33 379.22 185.45 380.68 C 178.34 384.16 170.31 383.46 162.66 383.30 C 162.68 381.79 162.70 380.29 162.72 378.79 Z" />
</g>
<g id="#0a1a25ff">
<path fill="#0a1a25" opacity="1.00" d=" M 369.65 379.89 C 375.40 379.03 381.23 379.65 387.01 379.18 C 389.64 378.84 392.20 379.58 394.22 381.29 C 387.35 381.20 380.45 380.85 373.61 381.60 C 374.82 382.69 376.04 383.80 377.31 384.85 C 374.08 384.42 371.44 382.56 369.65 379.89 Z" />
</g>
<g id="#22314bff">
<path fill="#22314b" opacity="1.00" d=" M 294.49 381.26 C 300.11 381.49 305.81 380.97 311.37 382.07 C 311.68 387.43 313.58 392.57 313.62 397.95 C 313.75 404.64 314.83 411.29 314.66 418.00 C 314.49 427.68 315.64 437.36 314.83 447.04 C 309.94 447.61 305.00 447.61 300.11 447.14 C 299.49 433.43 300.26 419.70 299.61 406.00 C 298.48 397.65 296.81 389.35 294.49 381.26 Z" />
</g>
<g id="#2e506eff">
<path fill="#2e506e" opacity="1.00" d=" M 373.61 381.60 C 380.45 380.85 387.35 381.20 394.22 381.29 C 399.25 381.75 404.14 383.19 409.14 383.95 C 412.24 384.70 415.90 384.65 418.19 387.21 C 407.81 387.59 397.42 387.73 387.03 387.42 C 391.82 392.87 397.06 397.94 401.15 403.97 C 398.70 402.43 396.53 400.53 394.52 398.47 C 389.32 393.29 383.30 389.05 377.31 384.85 C 376.04 383.80 374.82 382.69 373.61 381.60 Z" />
</g>
<g id="#6cb4c4ff">
<path fill="#6cb4c4" opacity="1.00" d=" M 268.23 382.75 C 275.73 381.39 283.38 381.27 290.98 381.69 C 293.63 385.50 293.50 390.54 294.16 394.99 C 294.72 409.33 294.82 423.69 294.58 438.04 C 294.49 441.20 295.41 444.25 295.98 447.33 C 288.20 447.66 280.38 447.82 272.61 447.12 C 272.68 436.55 272.99 425.96 272.37 415.40 C 271.05 407.93 272.12 400.17 269.91 392.84 C 268.92 389.56 268.49 386.15 268.23 382.75 Z" />
</g>
<g id="#6bb4c5ff">
<path fill="#6bb4c5" opacity="1.00" d=" M 315.11 381.56 C 325.07 381.47 335.06 381.08 345.02 381.56 C 353.87 383.75 360.50 390.64 368.86 394.02 C 368.36 391.44 367.80 388.88 367.39 386.29 C 377.73 391.90 386.24 400.25 394.57 408.44 C 399.96 413.72 405.31 419.08 409.89 425.10 C 418.53 436.16 427.55 446.93 435.59 458.44 C 441.16 464.67 443.42 472.87 447.49 480.00 L 301.98 480.00 C 299.72 479.25 297.53 478.19 295.14 477.96 C 293.26 478.31 291.57 479.28 289.82 480.00 L 282.53 480.00 C 282.67 474.82 281.25 469.81 280.34 464.76 C 280.03 464.97 279.74 465.19 279.44 465.41 C 278.72 462.04 277.88 458.70 277.05 455.37 C 295.38 455.34 313.70 455.34 332.03 455.35 C 337.12 455.50 341.90 453.51 346.55 451.70 C 354.38 448.27 359.02 440.70 364.43 434.48 C 372.98 426.19 376.86 413.88 375.71 402.13 C 374.36 402.23 373.03 402.34 371.69 402.46 C 371.63 414.09 366.04 424.90 358.52 433.49 C 349.18 443.30 335.14 448.06 321.73 446.30 C 321.04 435.51 322.39 424.64 320.83 413.91 C 320.33 416.01 319.82 418.11 319.44 420.23 C 320.17 407.17 317.49 394.31 315.11 381.56 Z" />
<path fill="#6bb4c5" opacity="1.00" d=" M 204.47 384.48 C 210.88 382.91 217.50 383.63 224.01 383.17 C 230.58 382.62 237.25 382.20 243.80 383.26 C 246.71 396.31 245.39 409.80 247.35 422.98 C 247.62 430.49 247.49 438.01 247.53 445.52 C 240.35 445.52 233.18 445.20 226.00 445.28 C 221.11 445.19 216.16 445.59 211.34 444.56 C 201.63 442.34 191.66 441.66 181.81 440.32 C 173.88 439.09 165.80 439.42 157.86 438.19 C 148.53 436.76 138.07 438.78 129.84 433.09 C 123.52 428.56 116.40 424.71 111.71 418.31 C 108.97 414.52 106.81 410.31 105.19 405.93 C 103.51 401.85 106.24 397.84 107.12 393.90 C 109.91 393.15 112.69 392.33 115.48 391.55 C 122.62 390.82 129.84 391.68 137.00 391.01 C 144.53 390.23 152.19 391.31 159.62 389.62 C 166.89 388.98 174.30 389.67 181.44 387.78 C 189.16 386.91 196.74 385.23 204.47 384.48 Z" />
</g>
<g id="#23314bff">
<path fill="#23314b" opacity="1.00" d=" M 248.11 383.17 C 252.89 383.24 257.71 382.85 262.46 383.48 C 265.21 383.74 264.91 386.95 265.20 388.97 C 265.45 396.04 267.68 402.90 267.37 410.02 C 267.14 422.32 267.77 434.64 267.08 446.93 C 261.87 447.08 256.65 446.91 251.46 446.46 C 251.61 435.30 251.46 424.13 251.33 412.97 C 250.30 403.03 249.12 393.11 248.11 383.17 Z" />
</g>
<g id="#6bb3c4ff">
<path fill="#6bb3c4" opacity="1.00" d=" M 387.03 387.42 C 397.42 387.73 407.81 387.59 418.19 387.21 C 418.54 387.29 419.24 387.43 419.58 387.50 C 423.62 392.57 425.35 398.99 428.11 404.77 C 430.23 409.10 431.04 414.07 434.04 417.96 C 436.92 422.37 439.36 427.13 441.19 432.07 C 442.25 438.41 441.64 444.92 441.10 451.29 C 433.76 445.05 429.24 436.29 422.66 429.34 C 416.04 420.43 408.21 412.52 401.15 403.97 C 397.06 397.94 391.82 392.87 387.03 387.42 Z" />
</g>
<g id="#2c5072ff">
<path fill="#2c5072" opacity="1.00" d=" M 103.89 392.86 C 107.70 392.10 111.56 391.23 115.48 391.55 C 112.69 392.33 109.91 393.15 107.12 393.90 C 106.24 397.84 103.51 401.85 105.19 405.93 C 106.81 410.31 108.97 414.52 111.71 418.31 C 116.40 424.71 123.52 428.56 129.84 433.09 C 138.07 438.78 148.53 436.76 157.86 438.19 C 165.80 439.42 173.88 439.09 181.81 440.32 C 191.66 441.66 201.63 442.34 211.34 444.56 C 208.25 445.07 205.13 445.34 202.00 445.28 C 185.29 445.14 168.58 445.16 151.87 445.51 C 154.61 445.90 157.37 446.21 160.12 446.57 C 150.41 446.48 140.71 446.81 131.01 446.87 C 122.14 447.24 113.14 447.66 104.40 445.72 C 100.44 444.83 96.16 444.35 92.80 441.88 C 91.85 433.97 92.58 425.96 92.39 418.01 C 92.61 412.18 92.26 406.20 93.77 400.52 C 95.99 396.87 99.41 393.33 103.89 392.86 Z" />
</g>
<g id="#304e69ff">
<path fill="#304e69" opacity="1.00" d=" M 81.65 399.42 C 83.94 398.99 86.25 398.68 88.57 398.52 C 88.04 404.36 86.70 410.12 86.61 416.01 C 86.43 424.36 86.70 432.70 86.63 441.05 C 84.27 440.93 81.03 441.52 79.80 438.89 C 79.10 433.63 79.70 428.29 79.50 423.01 C 79.32 415.07 81.47 407.33 81.65 399.42 Z" />
</g>
<g id="#447986ff">
<path fill="#447986" opacity="1.00" d=" M 371.69 402.46 C 373.03 402.34 374.36 402.23 375.71 402.13 C 376.86 413.88 372.98 426.19 364.43 434.48 C 366.89 430.02 369.41 425.59 371.76 421.06 C 374.52 415.50 375.15 409.23 375.17 403.10 C 374.45 403.21 373.02 403.42 372.30 403.53 C 371.98 409.82 371.09 416.20 368.01 421.80 C 364.25 429.27 359.05 436.34 351.77 440.69 C 346.28 443.94 340.39 447.20 333.85 447.39 C 329.07 447.56 324.27 447.62 319.54 448.38 C 319.34 439.00 319.35 429.61 319.44 420.23 C 319.82 418.11 320.33 416.01 320.83 413.91 C 322.39 424.64 321.04 435.51 321.73 446.30 C 335.14 448.06 349.18 443.30 358.52 433.49 C 366.04 424.90 371.63 414.09 371.69 402.46 Z" />
</g>
<g id="#0e2f38ff">
<path fill="#0e2f38" opacity="1.00" d=" M 372.30 403.53 C 373.02 403.42 374.45 403.21 375.17 403.10 C 375.15 409.23 374.52 415.50 371.76 421.06 C 370.50 421.30 369.26 421.55 368.01 421.80 C 371.09 416.20 371.98 409.82 372.30 403.53 Z" />
</g>
<g id="#292528a6">
<path fill="#292528" opacity="0.65" d=" M 435.02 403.83 C 436.26 404.92 437.26 406.39 437.09 408.13 C 435.08 407.77 434.72 405.50 435.02 403.83 Z" />
</g>
<g id="#34303098">
<path fill="#343030" opacity="0.60" d=" M 444.98 424.71 C 446.35 425.31 447.18 426.63 447.17 428.14 C 445.56 427.80 444.63 426.29 444.98 424.71 Z" />
</g>
<g id="#1a161a5d">
<path fill="#1a161a" opacity="0.36" d=" M 447.43 428.78 C 450.42 433.71 450.39 439.70 449.01 445.14 C 449.05 439.65 448.67 434.14 447.43 428.78 Z" />
</g>
<g id="#636363ff">
<path fill="#636363" opacity="1.00" d=" M 88.61 449.22 C 92.37 449.06 96.25 448.80 99.85 450.17 C 105.05 451.97 110.45 453.23 115.97 453.20 C 131.40 453.35 146.84 453.57 162.26 453.18 C 158.12 453.84 153.99 454.60 149.81 454.94 C 137.28 455.74 124.72 454.95 112.18 455.21 C 107.31 463.35 102.56 471.55 98.25 480.00 L 86.61 480.00 C 91.41 473.12 94.95 465.47 99.43 458.38 C 100.28 456.58 101.97 454.72 101.34 452.61 C 97.61 449.94 92.50 451.68 88.61 449.22 Z" />
</g>
<g id="#636365ff">
<path fill="#636365" opacity="1.00" d=" M 162.26 453.18 C 166.92 452.59 171.62 452.68 176.30 452.81 C 172.10 453.37 167.76 453.38 163.70 454.67 C 161.95 456.00 160.88 457.98 159.74 459.82 C 155.90 466.51 152.29 473.34 148.38 480.00 L 136.25 480.00 C 140.47 471.48 145.70 463.51 149.81 454.94 C 153.99 454.60 158.12 453.84 162.26 453.18 Z" />
</g>
<g id="#2c5070ff">
<path fill="#2c5070" opacity="1.00" d=" M 199.79 453.24 C 208.83 452.37 217.93 452.92 227.00 452.76 C 239.99 452.50 252.89 454.32 265.86 454.55 C 268.66 454.35 269.42 457.44 270.14 459.52 C 272.02 466.51 273.68 473.68 277.36 480.00 L 270.29 480.00 C 266.52 478.23 262.50 477.09 258.39 476.48 C 250.96 475.37 244.13 472.13 236.98 470.03 C 232.00 468.53 227.13 466.68 222.45 464.43 C 214.86 460.77 206.83 457.94 199.79 453.24 Z" />
</g>
<g id="#9cd8e5ff">
<path fill="#9cd8e5" opacity="1.00" d=" M 289.82 480.00 C 291.57 479.28 293.26 478.31 295.14 477.96 C 297.53 478.19 299.72 479.25 301.98 480.00 L 289.82 480.00 Z" />
</g>
</svg>
